<?xml version="1.0" encoding="utf-8"?>
<!-- Generator: Adobe Illustrator 19.2.0, SVG Export Plug-In . SVG Version: 6.00 Build 0)  -->
<svg version="1.1" id="Ebene_1" xmlns="http://www.w3.org/2000/svg" xmlns:xlink="http://www.w3.org/1999/xlink" x="0px" y="0px"
	 viewBox="0 0 230.1 45.4" style="enable-background:new 0 0 230.1 45.4;" xml:space="preserve">
<style type="text/css">
	.st0{clip-path:url(#SVGID_2_);fill:#003DA4;}
	.st1{fill:#003DA4;}
	.st2{clip-path:url(#SVGID_4_);fill:#003DA4;}
	.st3{clip-path:url(#SVGID_4_);fill:#1D1D1B;}
</style>
<g>
	<defs>
		<rect id="SVGID_1_" width="230.1" height="45.4"/>
	</defs>
	<clipPath id="SVGID_2_">
		<use xlink:href="#SVGID_1_"  style="overflow:visible;"/>
	</clipPath>
	<path class="st0" d="M0,22.7V20h30v-4.5H0.9C3.6,6.4,12.7,0,22.7,0c11.8,0,21.8,10,21.8,22.7s-10,22.7-21.8,22.7
		C12.7,45.4,4.5,39,0.9,30H30v-4.5H0V22.7"/>
	<path class="st0" d="M164.8,33.6c0,4.5,2.7,6.4,7.3,6.4h1.8v-5.4H172c-0.9,0-1.8,0-1.8-1.8V0h-5.4V33.6z"/>
</g>
<path class="st1" d="M179.3,40h5.4V11.8h-5.4V40z M179.3,6.4h5.4V0h-5.4V6.4z"/>
<g>
	<defs>
		<rect id="SVGID_3_" width="230.1" height="45.4"/>
	</defs>
	<clipPath id="SVGID_4_">
		<use xlink:href="#SVGID_3_"  style="overflow:visible;"/>
	</clipPath>
	<path class="st2" d="M192.9,40h6.4V16.3h5.4v-4.5h-5.4V8.2c0-1.8,0-2.7,1.8-2.7h3.6V0h-3.6c-4.5,0-8.2,2.7-8.2,8.2v3.6h-2.7v4.5
		h2.7V40z"/>
	<path class="st2" d="M230.1,28.2v-4.5c0-7.3-5.4-11.8-11.8-11.8c-5.4,0-11.8,3.6-11.8,14.5c0,11.8,7.3,14.5,12.7,14.5
		c3.6,0,7.3-1.8,10-4.5l-3.6-3.6c-1.8,1.8-4.5,2.7-6.4,2.7c-3.6,0-7.3-2.7-7.3-7.3H230.1z M212,23.6c0.9-4.5,2.7-6.4,6.4-6.4
		c3.6,0,5.5,1.8,6.4,6.4H212z"/>
	<path class="st3" d="M76.7,28.2v-4.5c0-7.3-5.5-11.8-10.9-11.8c-6.4,0-11.8,3.6-11.8,14.5c0,11.8,6.4,14.5,12.7,14.5
		c3.6,0,7.3-0.9,10-4.5l-4.5-3.6c-1.8,1.8-3.6,2.7-6.4,2.7c-3.6,0-6.4-1.8-6.4-7.3H76.7z M59.4,23.6c0-4.5,2.7-6.4,6.4-6.4
		c2.7,0,5.4,1.8,5.4,6.4H59.4z"/>
	<path class="st3" d="M105.7,11.8v29.1l-5.4-3.6c-1.8,2.7-4.5,3.6-7.3,3.6c-4.5,0-10-3.6-10-10V11.8h5.4v17.3c0,3.6,2.7,6.4,6.4,6.4
		c2.7,0,5.4-2.7,5.4-6.4V11.8H105.7z"/>
	<path class="st3" d="M113,11.8l6.4,3.6c1.8-2.7,4.5-3.6,7.3-3.6c2.7,0,4.5,0.9,6.4,1.8l-4.5,5.4c-0.9-0.9-1.8-1.8-3.6-1.8
		c-2.7,0-5.4,1.8-5.4,6.4v17.3H113V11.8z"/>
	<path class="st3" d="M133,26.4c0,6.2,0.8,8.5,3.1,11c1.7,1.7,4.2,3.7,8.7,3.7c4.5,0,7-2,8.7-3.7c2.3-2.5,3.1-4.8,3.1-11
		s-0.8-8.7-3.1-11c-1.7-1.7-4.2-3.7-8.7-3.7c-4.5,0-7,2-8.7,3.7C133.9,17.6,133,20.2,133,26.4 M150.8,26.4c0,4.2-0.3,5.4-1.4,6.8
		c-0.8,1.1-2.5,2-4.5,2c-2,0-3.7-0.8-4.8-2c-0.8-1.4-1.4-2.5-1.4-6.8s0.6-5.4,1.4-6.8c1.1-1.4,2.8-2.3,4.8-2.3c2,0,3.7,0.8,4.5,2.3
		C150.5,21,150.8,22.1,150.8,26.4"/>
</g>
</svg>
